<svg width="362" height="621" viewBox="0 0 362 621" fill="none" xmlns="http://www.w3.org/2000/svg">
<g filter="url(#filter0_d_2621_17279)">
<path fill-rule="evenodd" clip-rule="evenodd" d="M16 18C16 15.7909 17.7909 14 20 14H342C344.209 14 346 15.7909 346 18V210.181C346 212.326 344.294 214.054 342.191 214.482C331.241 216.709 323 226.392 323 238C323 249.608 331.241 259.291 342.191 261.518C344.294 261.946 346 263.674 346 265.819V599C346 601.209 344.209 603 342 603H20C17.7909 603 16 601.209 16 599V265C16 262.791 17.8043 261.035 19.9832 260.671C31.3423 258.774 40 248.898 40 237C40 225.102 31.3423 215.226 19.9833 213.329C17.8043 212.965 16 211.209 16 209V18Z" fill="white"/>
</g>
<defs>
<filter id="filter0_d_2621_17279" x="0" y="0" width="362" height="621" filterUnits="userSpaceOnUse" color-interpolation-filters="sRGB">
<feFlood flood-opacity="0" result="BackgroundImageFix"/>
<feColorMatrix in="SourceAlpha" type="matrix" values="0 0 0 0 0 0 0 0 0 0 0 0 0 0 0 0 0 0 127 0" result="hardAlpha"/>
<feOffset dy="2"/>
<feGaussianBlur stdDeviation="8"/>
<feComposite in2="hardAlpha" operator="out"/>
<feColorMatrix type="matrix" values="0 0 0 0 0 0 0 0 0 0 0 0 0 0 0 0 0 0 0.06 0"/>
<feBlend mode="normal" in2="BackgroundImageFix" result="effect1_dropShadow_2621_17279"/>
<feBlend mode="normal" in="SourceGraphic" in2="effect1_dropShadow_2621_17279" result="shape"/>
</filter>
</defs>
</svg>
