<svg width="374" height="629" viewBox="0 0 374 629" fill="none" xmlns="http://www.w3.org/2000/svg">
<g filter="url(#filter0_d_1975_13071)">
<mask id="path-1-inside-1_1975_13071" fill="white">
<path fill-rule="evenodd" clip-rule="evenodd" d="M24 24C24 21.7909 25.7909 20 28 20H350C352.209 20 354 21.7909 354 24V216.181C354 218.326 352.294 220.054 350.191 220.482C339.241 222.709 331 232.392 331 244C331 255.608 339.241 265.291 350.191 267.518C352.294 267.946 354 269.674 354 271.819V605C354 607.209 352.209 609 350 609H28C25.7909 609 24 607.209 24 605V271C24 268.791 25.8043 267.035 27.9832 266.671C39.3423 264.774 48 254.898 48 243C48 231.102 39.3423 221.226 27.9833 219.329C25.8043 218.965 24 217.209 24 215V24Z"/>
</mask>
<path fill-rule="evenodd" clip-rule="evenodd" d="M24 24C24 21.7909 25.7909 20 28 20H350C352.209 20 354 21.7909 354 24V216.181C354 218.326 352.294 220.054 350.191 220.482C339.241 222.709 331 232.392 331 244C331 255.608 339.241 265.291 350.191 267.518C352.294 267.946 354 269.674 354 271.819V605C354 607.209 352.209 609 350 609H28C25.7909 609 24 607.209 24 605V271C24 268.791 25.8043 267.035 27.9832 266.671C39.3423 264.774 48 254.898 48 243C48 231.102 39.3423 221.226 27.9833 219.329C25.8043 218.965 24 217.209 24 215V24Z" fill="white"/>
<path d="M27.9833 219.329L27.8185 220.315L27.9833 219.329ZM27.9832 266.671L28.148 267.657L27.9832 266.671ZM350.191 267.518L349.992 268.498L350.191 267.518ZM350.191 220.482L350.391 221.462L350.191 220.482ZM350 19H28V21H350V19ZM355 216.181V24H353V216.181H355ZM332 244C332 232.877 339.897 223.596 350.391 221.462L349.992 219.502C338.585 221.822 330 231.907 330 244H332ZM350.391 266.538C339.897 264.404 332 255.123 332 244H330C330 256.093 338.585 266.178 349.992 268.498L350.391 266.538ZM355 605V271.819H353V605H355ZM28 610H350V608H28V610ZM23 271V605H25V271H23ZM47 243C47 254.401 38.7035 263.866 27.8185 265.685L28.148 267.657C39.9812 265.681 49 255.395 49 243H47ZM27.8185 220.315C38.7035 222.134 47 231.599 47 243H49C49 230.605 39.9812 220.319 28.148 218.343L27.8185 220.315ZM23 24V215H25V24H23ZM28.148 218.343C26.3483 218.042 25 216.623 25 215H23C23 217.795 25.2603 219.888 27.8185 220.315L28.148 218.343ZM25 271C25 269.377 26.3483 267.958 28.148 267.657L27.8185 265.685C25.2603 266.112 23 268.205 23 271H25ZM28 608C26.3431 608 25 606.657 25 605H23C23 607.761 25.2386 610 28 610V608ZM349.992 268.498C351.726 268.851 353 270.242 353 271.819H355C355 269.105 352.862 267.041 350.391 266.538L349.992 268.498ZM353 216.181C353 217.758 351.726 219.149 349.992 219.502L350.391 221.462C352.862 220.959 355 218.895 355 216.181H353ZM28 19C25.2386 19 23 21.2386 23 24H25C25 22.3431 26.3431 21 28 21V19ZM353 605C353 606.657 351.657 608 350 608V610C352.761 610 355 607.761 355 605H353ZM350 21C351.657 21 353 22.3431 353 24H355C355 21.2386 352.761 19 350 19V21Z" fill="black" mask="url(#path-1-inside-1_1975_13071)"/>
</g>
<defs>
<filter id="filter0_d_1975_13071" x="0" y="-2" width="378" height="637" filterUnits="userSpaceOnUse" color-interpolation-filters="sRGB">
<feFlood flood-opacity="0" result="BackgroundImageFix"/>
<feColorMatrix in="SourceAlpha" type="matrix" values="0 0 0 0 0 0 0 0 0 0 0 0 0 0 0 0 0 0 127 0" result="hardAlpha"/>
<feOffset dy="2"/>
<feGaussianBlur stdDeviation="12"/>
<feComposite in2="hardAlpha" operator="out"/>
<feColorMatrix type="matrix" values="0 0 0 0 0 0 0 0 0 0 0 0 0 0 0 0 0 0 0.24 0"/>
<feBlend mode="normal" in2="BackgroundImageFix" result="effect1_dropShadow_1975_13071"/>
<feBlend mode="normal" in="SourceGraphic" in2="effect1_dropShadow_1975_13071" result="shape"/>
</filter>
</defs>
</svg>
